<svg xmlns="http://www.w3.org/2000/svg" width="46.315" height="46.296" viewBox="0 0 46.315 46.296"><g transform="translate(-13.36 -545.186)"><path d="M35.609,44.141l-6.041-1.719a21.906,21.906,0,0,1-16.192-40.7A21.9,21.9,0,0,1,40.087,34.111l.595,5.772a3.991,3.991,0,0,1-5.073,4.258Z" transform="translate(13.36 547.186)" opacity="0.3"/><g transform="translate(15.873 545.186)" fill="#ff6e50"><path d="M 36.71372985839844 42.79632949829102 C 36.48268890380859 42.79634857177734 36.24893188476562 42.76317977905273 36.0189323425293 42.69774627685547 L 29.9785099029541 40.97885894775391 L 29.50399017333984 40.84382629394531 L 29.04195976257324 41.01682662963867 C 26.76432991027832 41.86966705322266 24.36163139343262 42.30209732055664 21.90060043334961 42.30209732055664 C 19.14686965942383 42.30209732055664 16.47540092468262 41.7624397277832 13.96040058135986 40.6981086730957 C 11.53187084197998 39.67155838012695 9.350350379943848 38.20072937011719 7.475860595703125 36.32623672485352 C 5.602320671081543 34.45353698730469 4.13122034072876 32.27195739746094 3.103160619735718 29.84186744689941 C 2.039410591125488 27.32625770568848 1.500000596046448 24.65434837341309 1.500000596046448 21.90059852600098 C 1.500000596046448 19.14743804931641 2.039410591125488 16.47583770751953 3.103260517120361 13.95999813079834 C 4.131040573120117 11.53054809570312 5.602230548858643 9.348587989807129 7.475860595703125 7.474957942962646 C 9.34890079498291 5.60191822052002 11.53055095672607 4.131038188934326 13.96023082733154 3.103157997131348 C 16.47583961486816 2.039408206939697 19.14743995666504 1.499998092651367 21.90060043334961 1.499998092651367 C 24.65435028076172 1.499998092651367 27.32626152038574 2.039408206939697 29.84210014343262 3.10325813293457 C 32.27154922485352 4.131038188934326 34.45320129394531 5.60191822052002 36.32624053955078 7.474957942962646 C 38.20083236694336 9.350388526916504 39.67173004150391 11.53228855133057 40.69786071777344 13.95981788635254 C 41.7624397277832 16.47539901733398 42.30210113525391 19.1468677520752 42.30210113525391 21.90059852600098 C 42.30210113525391 24.6549186706543 41.7624397277832 27.32669830322266 40.6981086730957 29.84169769287109 C 40.18989181518555 31.04400825500488 39.56562042236328 32.1984977722168 38.84239196777344 33.27367782592773 L 38.53923034667969 33.72435760498047 L 38.59490966796875 34.2646484375 L 39.18970108032227 40.03636932373047 C 39.26319122314453 40.74997711181641 39.04114151000977 41.43400955200195 38.56444931030273 41.96234893798828 C 38.08631896972656 42.4922981262207 37.41175079345703 42.79626846313477 36.71372222900391 42.79632949829102 L 36.71372985839844 42.79632949829102 Z" stroke="none"/><path d="M 36.71360015869141 41.29632949829102 L 36.71358871459961 41.29632949829102 C 36.98783111572266 41.29630661010742 37.25651168823242 41.17281723022461 37.45075225830078 40.95752716064453 C 37.58417892456055 40.80963897705078 37.73532104492188 40.5564079284668 37.69760131835938 40.19013977050781 L 36.99145889282227 33.33783721923828 L 37.59775924682617 32.43647766113281 C 38.26744079589844 31.44090843200684 38.84561157226562 30.37160873413086 39.31671142578125 29.25710868835449 C 40.30234146118164 26.92806816101074 40.80210113525391 24.45297813415527 40.80210113525391 21.90059852600098 C 40.80210113525391 19.34880828857422 40.30234146118164 16.87402725219727 39.31623077392578 14.54384803771973 C 38.36568069458008 12.29512786865234 37.00268936157227 10.27350807189941 35.26557922363281 8.535617828369141 C 33.52978897094727 6.799828052520752 31.50835990905762 5.436878204345703 29.25789070129395 4.484817981719971 C 26.92790985107422 3.499558210372925 24.45256042480469 2.999998092651367 21.90060043334961 2.999998092651367 C 19.34924125671387 2.999998092651367 16.87419128417969 3.499558210372925 14.5446605682373 4.484628200531006 C 12.29374027252197 5.436878204345703 10.27231025695801 6.799828052520752 8.536520957946777 8.535617828369141 C 6.800130367279053 10.27200794219971 5.436880588531494 12.29373836517334 4.484820365905762 14.54420852661133 C 3.499560594558716 16.87418746948242 3.000000476837158 19.3492374420166 3.000000476837158 21.90059852600098 C 3.000000476837158 24.45255851745605 3.499560594558716 26.92790794372559 4.484630584716797 29.25743865966797 C 5.437010765075684 31.50866889953613 6.800110340118408 33.52993774414062 8.536520957946777 35.26557922363281 C 10.27366065979004 37.00270843505859 12.29481029510498 38.36554718017578 14.54499053955078 39.31670761108398 C 16.87403106689453 40.30233764648438 19.34881019592285 40.80209732055664 21.90060043334961 40.80209732055664 C 24.1813907623291 40.80209732055664 26.40711975097656 40.40171813964844 28.51596069335938 39.61207962036133 L 29.44002151489258 39.26606750488281 L 36.42937088012695 41.25499725341797 C 36.52579879760742 41.28242874145508 36.62142944335938 41.29633712768555 36.71360015869141 41.29632949829102 M 36.71385192871094 44.29632949829102 C 36.35163879394531 44.29635620117188 35.98097229003906 44.24646759033203 35.60850143432617 44.14050674438477 L 29.56796073913574 42.42157745361328 C 27.12038040161133 43.33805847167969 24.54520034790039 43.80209732055664 21.90060043334961 43.80209732055664 C 18.94499969482422 43.80209732055664 16.07670021057129 43.22249984741211 13.37580013275146 42.07949829101562 C 10.76760101318359 40.97699737548828 8.425800323486328 39.39749908447266 6.415200710296631 37.38689804077148 C 4.403700351715088 35.37629699707031 2.825100660324097 33.03449630737305 1.721700549125671 30.42629814147949 C 0.5796005725860596 27.72539901733398 5.676269552168378e-07 24.85619735717773 5.676269552168378e-07 21.90059852600098 C 5.676269552168378e-07 18.94499778747559 0.5796005725860596 16.07669830322266 1.721700549125671 13.37579822540283 C 2.825100660324097 10.76759815216064 4.403700351715088 8.425798416137695 6.415200710296631 6.414298057556152 C 8.425800323486328 4.403697967529297 10.76760101318359 2.825098037719727 13.37580013275146 1.721698045730591 C 16.07670021057129 0.5795981287956238 18.94499969482422 -1.899414087347395e-06 21.90060043334961 -1.899414087347395e-06 C 24.856201171875 -1.899414087347395e-06 27.72540092468262 0.5795981287956238 30.42630004882812 1.721698045730591 C 33.03450012207031 2.825098037719727 35.37630081176758 4.403697967529297 37.38690185546875 6.414298057556152 C 39.39749908447266 8.425798416137695 40.97700119018555 10.76759815216064 42.07950210571289 13.37579822540283 C 43.22249984741211 16.07669830322266 43.80210113525391 18.94499778747559 43.80210113525391 21.90059852600098 C 43.80210113525391 24.85619735717773 43.22249984741211 27.72539901733398 42.07950210571289 30.42629814147949 C 41.53134918212891 31.72307777404785 40.86534881591797 32.95377731323242 40.08700942993164 34.11088943481445 L 40.68180084228516 39.88260650634766 C 40.93193054199219 42.31161880493164 38.99740982055664 44.29612731933594 36.71385192871094 44.29632949829102 Z" stroke="none" fill="#fff"/></g><g transform="translate(29.364 558.537) rotate(-20)" opacity="0.094"><path d="M255.471,381.388l-1.256,5.751a2.566,2.566,0,1,1-5.125.071,30.914,30.914,0,0,1-1.3-6.184,3.894,3.894,0,1,1,7.715,0,1.749,1.749,0,0,1-.038.362Z" transform="translate(-247.793 -376.605)"/><path d="M252.788,412.642a2.562,2.562,0,1,1,2.572-2.562,2.569,2.569,0,0,1-2.572,2.562Z" transform="translate(-248.93 -391.112)"/></g><g transform="matrix(0.966, -0.259, 0.259, 0.966, 33.158, 556.515)"><path d="M255.471,381.388l-1.256,5.751a2.566,2.566,0,1,1-5.125.071,30.914,30.914,0,0,1-1.3-6.184,3.894,3.894,0,1,1,7.715,0,1.749,1.749,0,0,1-.038.362Z" transform="translate(-247.793 -376.605)" fill="#fff"/><path d="M252.788,412.642a2.562,2.562,0,1,1,2.572-2.562,2.569,2.569,0,0,1-2.572,2.562Z" transform="translate(-248.93 -391.112)" fill="#fff"/></g></g></svg>