<svg xmlns="http://www.w3.org/2000/svg" width="27.638" height="30.097" viewBox="0 0 27.638 30.097"><path d="M71.29,55.252l-4.1-17.007a1.246,1.246,0,0,0-1.5-.924l-.007,0-16.6,4.006a5,5,0,0,0-3.687,6.031l3.908,16.2a5,5,0,0,0,6.031,3.688l16.6-4.006a1.246,1.246,0,0,0,.923-1.5l0-.006-.195-.81a1.262,1.262,0,0,0-.679-.838,11.6,11.6,0,0,1-.912-3.78A1.243,1.243,0,0,0,71.29,55.252ZM52.333,47.719a.312.312,0,0,1,.23-.377l10.73-2.588a.313.313,0,0,1,.377.23L63.915,46a.313.313,0,0,1-.23.377l-10.73,2.588a.314.314,0,0,1-.377-.23Zm.781,3.24a.314.314,0,0,1,.23-.377l10.73-2.589a.313.313,0,0,1,.377.231l.245,1.012a.313.313,0,0,1-.231.377L53.735,52.2a.314.314,0,0,1-.377-.231Zm15.878,9.559L54.547,64a1.666,1.666,0,0,1-.781-3.24l14.446-3.485A18.745,18.745,0,0,0,68.993,60.518Z" transform="translate(-45.25 -37.286)" fill="#10384a"/></svg>