<svg xmlns="http://www.w3.org/2000/svg" width="33" height="31.35" viewBox="0 0 33 31.35"><path d="M32.7,9.6H29.1a4.938,4.938,0,0,0-8.778-4.372L19.5,6.333l-.825-1.122A4.94,4.94,0,0,0,9.9,9.6H6.3a3.275,3.275,0,0,0-3.283,3.3L3,31.05a3.289,3.289,0,0,0,3.3,3.3H32.7a3.289,3.289,0,0,0,3.3-3.3V12.9A3.289,3.289,0,0,0,32.7,9.6ZM24.45,6.3A1.65,1.65,0,1,1,22.8,7.95,1.655,1.655,0,0,1,24.45,6.3Zm-9.9,0A1.65,1.65,0,1,1,12.9,7.95,1.655,1.655,0,0,1,14.55,6.3ZM32.7,31.05H6.3v-3.3H32.7Zm0-8.25H6.3V12.9h8.382L11.25,17.569l2.673,1.93,3.927-5.346L19.5,11.91l1.65,2.244L25.077,19.5l2.673-1.93L24.318,12.9H32.7Z" transform="translate(-3 -3)" fill="#fff"/></svg>