<svg xmlns="http://www.w3.org/2000/svg" width="166.807" height="39.661" viewBox="0 0 166.807 39.661"><g transform="translate(-151.004 -35.279)"><g transform="translate(151.004 35.279)"><path d="M183.011,41.083a7.93,7.93,0,0,0-2.023-3.517h0a7.852,7.852,0,0,0-11.079,0h0l-2.77,2.77-2.77-2.77a7.852,7.852,0,0,0-11.079,0h0a7.834,7.834,0,0,0,11.079,11.079h0l2.77-2.77,2.77,2.77h0l2.77-2.77-2.77-2.77,2.77-2.77h0a3.9,3.9,0,0,1,5.539,0h0a3.9,3.9,0,0,1,0,5.54h0l2.77,2.77a7.851,7.851,0,0,0,2.023-7.562Zm-21.455,4.836h0a3.9,3.9,0,0,1-5.539,0h0a3.9,3.9,0,0,1,0-5.539h0a3.9,3.9,0,0,1,5.539,0l2.77,2.77Z" transform="translate(-151.004 -35.28)" fill="#10384a"/><g transform="translate(40.139 2.198)"><path d="M250.709,42.083h-.4v1.583h.4a1.576,1.576,0,0,1,1.583,1.583h-3.562a1.576,1.576,0,0,1,1.583-1.583V42.083a3.152,3.152,0,0,0-3.165,3.165h0v1.583h0A3.152,3.152,0,0,0,250.313,50h3.122V48.457h-3.122a1.576,1.576,0,0,1-1.583-1.583h5.144V45.292h0A3.19,3.19,0,0,0,250.709,42.083Z" transform="translate(-212.108 -38.961)" fill="#10384a"/><path d="M282.822,46.887h1.583V45.3h0a3.153,3.153,0,0,0-3.166-3.165h-.4v1.583h.4a1.577,1.577,0,0,1,1.583,1.583h-3.562a1.577,1.577,0,0,1,1.583-1.583V42.139a3.152,3.152,0,0,0-3.165,3.165h0v1.583h0a3.152,3.152,0,0,0,3.165,3.165h3.121V48.47h-3.121a1.576,1.576,0,0,1-1.583-1.583Z" transform="translate(-218.766 -38.974)" fill="#10384a"/><path d="M226.156,42.42h-1.583v4.748a1.576,1.576,0,0,1-1.583,1.583h-.4a1.576,1.576,0,0,1-1.583-1.583V42.42H219.43v4.748h0a3.152,3.152,0,0,0,3.165,3.165h.4a3.152,3.152,0,0,0,3.165-3.165h0V42.42Z" transform="translate(-206.064 -39.035)" fill="#10384a"/><path d="M241.78,41.525h-2.374a3.152,3.152,0,0,0-3.165,3.165v1.583a3.152,3.152,0,0,0,3.165,3.165h.791a3.152,3.152,0,0,0,3.165-3.165V38.316H241.78Zm0,4.748a1.576,1.576,0,0,1-1.583,1.583h-.791a1.576,1.576,0,0,1-1.583-1.583h0V44.69h0a1.576,1.576,0,0,1,1.583-1.583h2.374v3.165Z" transform="translate(-209.73 -38.14)" fill="#10384a"/><g transform="translate(50.515 0.351)"><rect width="1.583" height="7.958" transform="translate(0 2.814)" fill="#10384a"/><rect width="1.583" height="1.583" fill="#10384a"/></g><path d="M232.884,42.083a3.152,3.152,0,0,0-3.165,3.165h0V50H231.3V45.248h0a1.576,1.576,0,0,1,1.583-1.583h.791V42.083Z" transform="translate(-208.308 -38.961)" fill="#10384a"/><path d="M274.321,42.083a3.152,3.152,0,0,0-3.165,3.165h0V50h1.583V45.248h0a1.576,1.576,0,0,1,1.583-1.583h.836V42.083Z" transform="translate(-217.343 -38.961)" fill="#10384a"/><path d="M212.368,42.083h-1.187a3.152,3.152,0,0,0-3.165,3.165v1.583A3.152,3.152,0,0,0,211.181,50h1.187a3.152,3.152,0,0,0,3.165-3.165h-1.583a1.576,1.576,0,0,1-1.583,1.583h-1.187a1.577,1.577,0,0,1-1.583-1.583h0V45.248h0a1.576,1.576,0,0,1,1.583-1.583h1.187a1.576,1.576,0,0,1,1.583,1.583h0v1.583h1.583V45.248h0A3.152,3.152,0,0,0,212.368,42.083Z" transform="translate(-203.575 -38.961)" fill="#10384a"/><path d="M202.337,41.256v7.958h1.583V42.839H205.9V41.256H203.92a1.576,1.576,0,0,1,1.583-1.583h1.143V38.091H205.5A3.152,3.152,0,0,0,202.337,41.256Z" transform="translate(-202.337 -38.091)" fill="#10384a"/><path d="M263.3,46.139A1.61,1.61,0,0,0,261.9,45.3h-2.989v-.352a1.192,1.192,0,0,1,.659-1.1,1.213,1.213,0,0,1,.572-.132h2.726V42.139h-2.726A2.842,2.842,0,0,0,257.325,45V45.3a1.515,1.515,0,0,0,.22.791,1.551,1.551,0,0,0,1.363.791h3.034v.352a1.244,1.244,0,0,1-.66,1.1,1.436,1.436,0,0,1-.615.175h-3.254V50.1h3.254a2.873,2.873,0,0,0,2.858-2.814v-.439A1.667,1.667,0,0,0,263.3,46.139Z" transform="translate(-214.327 -38.974)" fill="#10384a"/></g></g><path d="M177.272,77.158V80.4a.476.476,0,0,1-.5.476,8.933,8.933,0,0,1-8.421-8.906V62.975a.476.476,0,0,1,.476-.475h3.2a.476.476,0,0,1,.476.475v8.993a4.75,4.75,0,0,0,4.34,4.725A.469.469,0,0,1,177.272,77.158Zm-12.04-10.8a6.258,6.258,0,0,1,0,4.882,6.322,6.322,0,0,1-1.364,2.01,6.388,6.388,0,0,1-2.03,1.353,6.26,6.26,0,0,1-2.464.49h-2.635a.431.431,0,0,0-.433.429v4.814a.431.431,0,0,1-.433.429H152.8a.431.431,0,0,1-.433-.429v-17.4a.431.431,0,0,1,.433-.429h6.573a6.26,6.26,0,0,1,2.464.491,6.386,6.386,0,0,1,2.03,1.352A6.317,6.317,0,0,1,165.232,66.353Zm-3.442,2.441a2.3,2.3,0,0,0-.7-1.7,2.345,2.345,0,0,0-1.716-.694h-2.635a.431.431,0,0,0-.433.429v3.928a.431.431,0,0,0,.433.429h2.635a2.345,2.345,0,0,0,1.716-.694A2.3,2.3,0,0,0,161.789,68.795Zm100.081-.719a9.046,9.046,0,0,1,0,7.1,9.26,9.26,0,0,1-1.981,2.908,9.376,9.376,0,0,1-2.935,1.963,9.326,9.326,0,0,1-7.176,0,9.223,9.223,0,0,1-2.923-1.963,9.347,9.347,0,0,1-1.969-2.908,9.046,9.046,0,0,1,0-7.1,9.4,9.4,0,0,1,1.969-2.9,9.223,9.223,0,0,1,2.923-1.963,9.326,9.326,0,0,1,7.176,0,9.282,9.282,0,0,1,4.916,4.858Zm-3.14,3.542a5.044,5.044,0,0,0-.423-2.058,5.38,5.38,0,0,0-2.851-2.812,5.254,5.254,0,0,0-2.089-.419,5.2,5.2,0,0,0-2.066.419,5.38,5.38,0,0,0-2.851,2.812,5.218,5.218,0,0,0,0,4.116,5.378,5.378,0,0,0,2.851,2.813,5.2,5.2,0,0,0,2.066.418,5.254,5.254,0,0,0,2.089-.418,5.378,5.378,0,0,0,2.851-2.813A5.041,5.041,0,0,0,258.73,71.618Zm38.446-6.655a8.234,8.234,0,0,0-2.573-1.723,7.86,7.86,0,0,0-3.141-.634,7.944,7.944,0,0,0-3.153.634,8.079,8.079,0,0,0-4.325,4.283,7.755,7.755,0,0,0-.64,3.123v9.619a.431.431,0,0,0,.432.429h3.051a.5.5,0,0,0,.5-.519c-.009-1.965,0-9.529,0-9.529a3.927,3.927,0,0,1,.307-1.6,4.185,4.185,0,0,1,.894-1.3,4.244,4.244,0,0,1,1.317-.886,4.143,4.143,0,0,1,4.542.886,4.287,4.287,0,0,1,.882,1.3,3.911,3.911,0,0,1,.268,1.6s.027,7.554,0,9.525a.47.47,0,0,0,.459.523h3.128a.431.431,0,0,0,.433-.429V70.647a7.743,7.743,0,0,0-.64-3.123A8.115,8.115,0,0,0,297.176,64.963ZM280.46,62.846h-3.05a.5.5,0,0,0-.5.519c.009,1.966,0,9.183,0,9.183a3.929,3.929,0,0,1-.307,1.6,4.213,4.213,0,0,1-2.211,2.189,4.147,4.147,0,0,1-4.542-.885,4.3,4.3,0,0,1-.882-1.3,3.913,3.913,0,0,1-.268-1.6s-.026-7.207,0-9.178a.471.471,0,0,0-.459-.524h-3.128a.431.431,0,0,0-.433.429v9.273a7.742,7.742,0,0,0,.64,3.123,8.1,8.1,0,0,0,1.74,2.561,8.231,8.231,0,0,0,2.573,1.723,7.854,7.854,0,0,0,3.14.634,7.941,7.941,0,0,0,3.153-.634,8.084,8.084,0,0,0,4.325-4.284,7.756,7.756,0,0,0,.64-3.123V63.275A.431.431,0,0,0,280.46,62.846Zm-55.29,7.783h-2.9a.422.422,0,0,0-.42.42v5.883h-1.413a5.345,5.345,0,0,1-2.1-.419,5.7,5.7,0,0,1-1.739-1.137,5.216,5.216,0,0,1-1.171-1.675,5.218,5.218,0,0,1,0-4.116,5.211,5.211,0,0,1,1.171-1.676,5.7,5.7,0,0,1,1.739-1.137,5.345,5.345,0,0,1,2.1-.418h2.874a.431.431,0,0,0,.433-.429V62.929a.431.431,0,0,0-.433-.429h-2.874a9.345,9.345,0,0,0-8.637,5.589,8.914,8.914,0,0,0,0,7.1,9.41,9.41,0,0,0,8.637,5.576h4.631a.441.441,0,0,0,.161-.031.421.421,0,0,0,.356-.414V71.049A.421.421,0,0,0,225.169,70.629Zm92.94.989a8.678,8.678,0,0,1-.737,3.554,9.4,9.4,0,0,1-8.637,5.589h-5.574a.431.431,0,0,1-.433-.429v-17.4a.431.431,0,0,1,.433-.429h5.574a9.364,9.364,0,0,1,8.637,5.576A8.6,8.6,0,0,1,318.109,71.618Zm-3.938,0a5.043,5.043,0,0,0-.422-2.058,5.23,5.23,0,0,0-1.172-1.675,5.7,5.7,0,0,0-1.739-1.137,5.345,5.345,0,0,0-2.1-.419h-1.813a.393.393,0,0,0-.393.393v9.793a.392.392,0,0,0,.393.393h1.813a5.345,5.345,0,0,0,2.1-.418,5.7,5.7,0,0,0,1.739-1.137,5.225,5.225,0,0,0,1.172-1.676A5.041,5.041,0,0,0,314.171,71.618Zm-125.2-8.875a.446.446,0,0,0-.794,0l-8.817,17.18a.437.437,0,0,0,.4.633h3.551a.927.927,0,0,0,.837-.529l4.032-7.564a.448.448,0,0,1,.794,0l4.133,7.568a.928.928,0,0,0,.833.521h3.41a.437.437,0,0,0,.4-.633ZM210.9,62.5h-3.661a.422.422,0,0,0-.35.188l-3.268,5.683a.42.42,0,0,1-.7,0L199.7,62.688a.422.422,0,0,0-.35-.188h-3.664a.426.426,0,0,0-.35.665l5.954,9.731a.427.427,0,0,1,.073.239v7.082a.425.425,0,0,0,.422.427h3.017a.425.425,0,0,0,.422-.427v-7.14a.425.425,0,0,1,.063-.224l.126-.206,5.833-9.48A.426.426,0,0,0,210.9,62.5Zm31.516,14.906v2.8a.433.433,0,0,1-.453.432,9.278,9.278,0,0,1-8.149-5.545h-.7a.431.431,0,0,0-.433.429v4.814a.431.431,0,0,1-.432.429H229.18a.431.431,0,0,1-.433-.429v-17.4a.431.431,0,0,1,.433-.429h6.573a6.264,6.264,0,0,1,2.465.491,6.338,6.338,0,0,1,3.394,3.362,6.268,6.268,0,0,1,0,4.882,6.345,6.345,0,0,1-3.394,3.362c-.11.046-.221.088-.332.128a5.678,5.678,0,0,0,4.132,2.251A.43.43,0,0,1,242.419,77.406Zm-9.3-6.219h2.635a2.345,2.345,0,0,0,1.716-.694,2.411,2.411,0,0,0,0-3.4,2.345,2.345,0,0,0-1.716-.694h-2.635a.431.431,0,0,0-.433.429v3.928A.431.431,0,0,0,233.118,71.187Z" transform="translate(-0.297 -5.936)" fill="#10384a"/></g></svg>