<svg xmlns="http://www.w3.org/2000/svg" width="26.6" height="34.913" viewBox="0 0 26.6 34.913"><path d="M253.406,785.33h-1.662v-3.325a8.313,8.313,0,1,0-16.625,0v3.325h-1.663a3.335,3.335,0,0,0-3.325,3.325V805.28a3.335,3.335,0,0,0,3.325,3.325h19.95a3.335,3.335,0,0,0,3.325-3.325V788.655A3.335,3.335,0,0,0,253.406,785.33Zm-9.975,14.962a3.325,3.325,0,1,1,3.325-3.325A3.325,3.325,0,0,1,243.431,800.292Zm5.154-14.962H238.277v-3.325a5.154,5.154,0,1,1,10.307,0v3.327Z" transform="translate(-230.131 -773.692)" fill="#4d4d4d"/></svg>