<svg xmlns="http://www.w3.org/2000/svg" width="22.569" height="24.577" viewBox="0 0 22.569 24.577"><path d="M66.514,51.956,63.163,38.069a1.017,1.017,0,0,0-1.226-.754h-.006L48.375,40.587a4.083,4.083,0,0,0-3.011,4.925l3.191,13.226a4.083,4.083,0,0,0,4.925,3.011l13.557-3.271a1.018,1.018,0,0,0,.754-1.226v0l-.159-.661a1.03,1.03,0,0,0-.555-.684,9.476,9.476,0,0,1-.745-3.087A1.015,1.015,0,0,0,66.514,51.956Zm-15.48-6.151a.255.255,0,0,1,.188-.308l8.762-2.114a.255.255,0,0,1,.308.188l.2.827a.256.256,0,0,1-.188.308l-8.762,2.114a.256.256,0,0,1-.308-.188Zm.638,2.645a.256.256,0,0,1,.188-.308l8.762-2.114a.256.256,0,0,1,.308.189l.2.826a.256.256,0,0,1-.189.308l-8.762,2.114a.257.257,0,0,1-.308-.189Zm12.966,7.806L52.842,59.1a1.361,1.361,0,1,1-.638-2.645L64,53.612A15.305,15.305,0,0,0,64.638,56.257Z" transform="translate(-45.25 -37.286)" fill="#fff"/></svg>