<svg xmlns="http://www.w3.org/2000/svg" width="45" height="45" viewBox="0 0 45 45"><g transform="translate(-320 -291)"><g transform="translate(326.9 298.596)"><path d="M11.96,3,9.618,5.56H5.56A2.568,2.568,0,0,0,3,8.12V23.48a2.568,2.568,0,0,0,2.56,2.56H26.04a2.568,2.568,0,0,0,2.56-2.56V8.12a2.568,2.568,0,0,0-2.56-2.56H21.982L19.64,3Z" fill="#fff"/><path d="M-10.442.123h2.065L-11.607-9.16H-13.89L-17.113.123h1.994l.708-2.252h3.261ZM-12.8-7.384h.045l1.19,3.8h-2.425Zm7.314,4.111h1.557L-2.2.123H0L-1.957-3.563A2.728,2.728,0,0,0-.272-6.2c0-1.833-1.222-2.959-3.358-2.959h-3.8V.123h1.943Zm0-4.368h1.653a1.424,1.424,0,0,1,1.57,1.48,1.393,1.393,0,0,1-1.55,1.48H-5.489Z" transform="translate(24.358 20.358)" fill="#10384a"/></g><rect width="45" height="45" transform="translate(320 291)" fill="none"/></g></svg>