<svg xmlns="http://www.w3.org/2000/svg" xmlns:xlink="http://www.w3.org/1999/xlink" width="61" height="55" viewBox="0 0 61 55"><defs><clipPath id="a"><rect width="15.196" height="25.776" fill="none"/></clipPath></defs><g transform="translate(-305 -304)"><g transform="translate(-360.428 93.716)"><path d="M754.6,311.851h-32.08a1.155,1.155,0,0,1-.965-1.789l7.854-11.944a1.151,1.151,0,0,1,.965-.52H746.75a1.151,1.151,0,0,1,.965.52l7.853,11.944a1.155,1.155,0,0,1-.965,1.789Zm-24.226-14.042a.94.94,0,0,0-.788.425l-7.854,11.944a.943.943,0,0,0,.788,1.461H754.6a.943.943,0,0,0,.788-1.461l-7.854-11.944a.94.94,0,0,0-.788-.425Z" transform="translate(-38.397 -65.496)" fill="#fff"/><g transform="translate(681.894 222.685)"><g clip-path="url(#a)"><circle cx="9.81" cy="9.81" r="9.81" transform="translate(3.847 2.501)" fill="#fff"/></g></g><g transform="translate(674.996 218.588)"><path d="M696.789,221.588H680.577A2.581,2.581,0,0,0,678,224.169v30.615a2.581,2.581,0,0,0,2.581,2.581h16.211a2.581,2.581,0,0,0,2.581-2.581V224.169A2.581,2.581,0,0,0,696.789,221.588Zm-.323,30.907a.573.573,0,0,1-.573.573h-14.42a.573.573,0,0,1-.573-.573V227.388a.573.573,0,0,1,.573-.573h14.42a.573.573,0,0,1,.573.573Z" transform="translate(-677.361 -220.953)" fill="#10384a"/><path d="M.476-3H16.168A3.48,3.48,0,0,1,19.644.476v30.1a3.48,3.48,0,0,1-3.476,3.476H.476A3.48,3.48,0,0,1-3,30.572V.476A3.48,3.48,0,0,1,.476-3ZM16.168,32.778a2.208,2.208,0,0,0,2.206-2.206V.476A2.208,2.208,0,0,0,16.168-1.73H.476A2.208,2.208,0,0,0-1.73.476v30.1A2.208,2.208,0,0,0,.476,32.778Z" transform="translate(3 3)" fill="#fff"/><path d="M.236-.5h14.3a.737.737,0,0,1,.736.736V25.228a.737.737,0,0,1-.736.736H.236A.737.737,0,0,1-.5,25.228V.236A.737.737,0,0,1,.236-.5Zm14.3,26.253a.525.525,0,0,0,.525-.525V.236a.525.525,0,0,0-.525-.525H.236A.525.525,0,0,0-.288.236V25.228a.525.525,0,0,0,.525.525Z" transform="translate(3.933 6.257)" fill="#fff"/><rect width="7.542" height="1.019" rx="0.51" transform="translate(7.435 3.03)" fill="#fff"/></g></g><rect width="61" height="55" transform="translate(305 304)" fill="none"/></g></svg>