{
    "asset": {
        "copyright": "2020 (c) Adobe Inc.",
        "generator": "Adobe Dimension - 20b96ed1944f99fd310aada6a21defae413bc238",
        "version": "2.0"
    },
    "accessors": [
        {
            "bufferView": 0,
            "componentType": 5126,
            "count": 9216,
            "type": "VEC3",
            "max": [
                0.06636704504489899,
                0.08802235126495362,
                0.13827583193778993
            ],
            "min": [
                -0.06636703014373779,
                0.0,
                -0.13827583193778993
            ]
        },
        {
            "bufferView": 1,
            "componentType": 5126,
            "count": 9216,
            "type": "VEC3"
        },
        {
            "bufferView": 2,
            "componentType": 5126,
            "count": 9216,
            "type": "VEC2"
        },
        {
            "bufferView": 3,
            "componentType": 5125,
            "count": 13824,
            "type": "SCALAR",
            "max": [
                9215.0
            ],
            "min": [
                0.0
            ]
        },
        {
            "bufferView": 4,
            "componentType": 5126,
            "count": 110592,
            "type": "VEC3",
            "max": [
                0.13642409443855287,
                0.04525553062558174,
                0.13695606589317323
            ],
            "min": [
                -0.13642409443855287,
                0.0007907799445092678,
                -0.1358921378850937
            ]
        },
        {
            "bufferView": 5,
            "componentType": 5126,
            "count": 110592,
            "type": "VEC3"
        },
        {
            "bufferView": 6,
            "componentType": 5126,
            "count": 110592,
            "type": "VEC2"
        },
        {
            "bufferView": 7,
            "componentType": 5125,
            "count": 165888,
            "type": "SCALAR",
            "max": [
                110591.0
            ],
            "min": [
                0.0
            ]
        },
        {
            "bufferView": 8,
            "componentType": 5126,
            "count": 110592,
            "type": "VEC3",
            "max": [
                0.13642409443855287,
                0.08722741901874542,
                0.13695606589317323
            ],
            "min": [
                -0.13642409443855287,
                0.04473374783992767,
                -0.1358921378850937
            ]
        },
        {
            "bufferView": 9,
            "componentType": 5126,
            "count": 110592,
            "type": "VEC3"
        },
        {
            "bufferView": 10,
            "componentType": 5126,
            "count": 110592,
            "type": "VEC2"
        }
    ],
    "bufferViews": [
        {
            "buffer": 0,
            "byteOffset": 0,
            "byteLength": 110592,
            "target": 34962
        },
        {
            "buffer": 0,
            "byteOffset": 110592,
            "byteLength": 110592,
            "target": 34962
        },
        {
            "buffer": 0,
            "byteOffset": 221184,
            "byteLength": 73728,
            "target": 34962
        },
        {
            "buffer": 0,
            "byteOffset": 294912,
            "byteLength": 55296,
            "target": 34963
        },
        {
            "buffer": 0,
            "byteOffset": 350208,
            "byteLength": 1327104,
            "target": 34962
        },
        {
            "buffer": 0,
            "byteOffset": 1677312,
            "byteLength": 1327104,
            "target": 34962
        },
        {
            "buffer": 0,
            "byteOffset": 3004416,
            "byteLength": 884736,
            "target": 34962
        },
        {
            "buffer": 0,
            "byteOffset": 3889152,
            "byteLength": 663552,
            "target": 34963
        },
        {
            "buffer": 0,
            "byteOffset": 4552704,
            "byteLength": 1327104,
            "target": 34962
        },
        {
            "buffer": 0,
            "byteOffset": 5879808,
            "byteLength": 1327104,
            "target": 34962
        },
        {
            "buffer": 0,
            "byteOffset": 7206912,
            "byteLength": 884736,
            "target": 34962
        }
    ],
    "buffers": [
        {
            "byteLength": 8091648,
            "uri": "Untitled_binary.bin"
        }
    ],
    "cameras": [
        {
            "perspective": {
                "znear": 0.000010000000656873454,
                "yfov": 0.6024156808853149,
                "zfar": 2.0,
                "aspectRatio": 1.3333333730697632
            },
            "type": "perspective",
            "name": "render_camera"
        }
    ],
    "images": [
        {
            "name": "composited_baseColor_opacity",
            "uri": "Untitled_images/composited_baseColor_opacity.png",
            "mimeType": "image/png"
        },
        {
            "name": "composited_roughness",
            "uri": "Untitled_images/composited_roughness.png",
            "mimeType": "image/png"
        },
        {
            "name": "normal_image_texture",
            "uri": "Untitled_images/normal_image_texture.png",
            "mimeType": "image/png"
        },
        {
            "name": "basecolor_image_texture",
            "uri": "Untitled_images/basecolor_image_texture.jpg",
            "mimeType": "image/jpeg"
        },
        {
            "name": "roughness_image_texture",
            "uri": "Untitled_images/roughness_image_texture.png",
            "mimeType": "image/png"
        },
        {
            "name": "normal_image_texture_0",
            "uri": "Untitled_images/normal_image_texture_0.png",
            "mimeType": "image/png"
        },
        {
            "name": "basecolor_image_texture_0",
            "uri": "Untitled_images/basecolor_image_texture_0.jpg",
            "mimeType": "image/jpeg"
        },
        {
            "name": "normal_image_texture_1",
            "uri": "Untitled_images/normal_image_texture_1.png",
            "mimeType": "image/png"
        }
    ],
    "materials": [
        {
            "pbrMetallicRoughness": {
                "baseColorTexture": {
                    "index": 0
                },
                "metallicFactor": 0.0,
                "metallicRoughnessTexture": {
                    "index": 1
                }
            },
            "normalTexture": {
                "index": 2
            },
            "alphaMode": "MASK",
            "name": "Glossy Paper",
            "doubleSided": true
        },
        {
            "pbrMetallicRoughness": {
                "baseColorTexture": {
                    "index": 3
                },
                "metallicFactor": 0.0,
                "metallicRoughnessTexture": {
                    "index": 4
                }
            },
            "normalTexture": {
                "index": 5
            },
            "name": "Crown Cut American Walnut",
            "doubleSided": true
        },
        {
            "pbrMetallicRoughness": {
                "baseColorTexture": {
                    "index": 6
                },
                "metallicFactor": 0.0,
                "roughnessFactor": 0.800000011920929
            },
            "normalTexture": {
                "index": 7
            },
            "name": "Cardboard",
            "doubleSided": true
        }
    ],
    "meshes": [
        {
            "name": "Sleeve",
            "primitives": [
                {
                    "attributes": {
                        "POSITION": 0,
                        "NORMAL": 1,
                        "TEXCOORD_0": 2
                    },
                    "indices": 3,
                    "material": 0
                }
            ]
        },
        {
            "name": "Bottom Lid",
            "primitives": [
                {
                    "attributes": {
                        "TEXCOORD_0": 6,
                        "NORMAL": 5,
                        "POSITION": 4
                    },
                    "indices": 7,
                    "material": 1
                }
            ]
        },
        {
            "name": "Top Lid",
            "primitives": [
                {
                    "attributes": {
                        "POSITION": 8,
                        "NORMAL": 9,
                        "TEXCOORD_0": 10
                    },
                    "indices": 7,
                    "material": 2
                }
            ]
        }
    ],
    "nodes": [
        {
            "translation": [
                0.5520565509796143,
                0.30000001192092898,
                0.4576839208602905
            ],
            "rotation": [
                -0.12059047073125839,
                0.379409521818161,
                0.04995020851492882,
                0.9159756302833557
            ],
            "scale": [
                1.0,
                1.0,
                0.9999999403953552
            ],
            "camera": 0,
            "name": "render_camera_n3d"
        },
        {
            "children": [
                2,
                3,
                4
            ],
            "name": "Takeout Box"
        },
        {
            "mesh": 0,
            "name": "Sleeve"
        },
        {
            "mesh": 1,
            "name": "Bottom Lid"
        },
        {
            "mesh": 2,
            "name": "Top Lid"
        }
    ],
    "samplers": [
        {},
        {},
        {},
        {},
        {},
        {},
        {},
        {}
    ],
    "scenes": [
        {
            "nodes": [
                0,
                1
            ],
            "name": "scene"
        }
    ],
    "textures": [
        {
            "name": "composited_baseColor_opacity",
            "sampler": 0,
            "source": 0
        },
        {
            "name": "composited_roughness",
            "sampler": 1,
            "source": 1
        },
        {
            "name": "normal_image_texture",
            "sampler": 2,
            "source": 2
        },
        {
            "name": "basecolor_image_texture",
            "sampler": 3,
            "source": 3
        },
        {
            "name": "roughness_image_texture",
            "sampler": 4,
            "source": 4
        },
        {
            "name": "normal_image_texture",
            "sampler": 5,
            "source": 5
        },
        {
            "name": "basecolor_image_texture",
            "sampler": 6,
            "source": 6
        },
        {
            "name": "normal_image_texture",
            "sampler": 7,
            "source": 7
        }
    ],
    "scene": 0
}