<svg xmlns="http://www.w3.org/2000/svg" width="245.233" height="36.285" viewBox="0 0 245.233 36.285"><g transform="translate(-93.678 -449.99)"><g transform="translate(93.678 449.99)"><path d="M167.88,463.443a18.392,18.392,0,0,0-4.688-8.154h0a18.2,18.2,0,0,0-25.686,0h0l-6.421,6.422-6.421-6.422a18.2,18.2,0,0,0-25.686,0h0a18.163,18.163,0,0,0,25.686,25.686h0l6.421-6.421,6.421,6.421h0l6.421-6.421-6.421-6.421,6.421-6.421h0a9.043,9.043,0,0,1,12.842,0h0a9.043,9.043,0,0,1,0,12.842h0l6.422,6.421a18.2,18.2,0,0,0,4.688-17.531ZM118.14,474.655h0a9.044,9.044,0,0,1-12.842,0h0a9.044,9.044,0,0,1,0-12.843h0a9.044,9.044,0,0,1,12.842,0l6.421,6.422Z" transform="translate(-93.678 -449.989)" fill="#10384a"/></g><g transform="translate(186.736 455.086)"><path d="M332.434,466.3h-.918v3.67h.918a3.654,3.654,0,0,1,3.669,3.67h-8.256a3.654,3.654,0,0,1,3.669-3.67V466.3a7.309,7.309,0,0,0-7.338,7.339h0v3.669h0a7.309,7.309,0,0,0,7.338,7.339h7.237v-3.568h-7.237a3.654,3.654,0,0,1-3.669-3.67h11.925v-3.67h0A7.4,7.4,0,0,0,332.434,466.3Z" transform="translate(-242.943 -459.063)" fill="#10384a"/><path d="M409.3,477.442h3.67v-3.67h0a7.309,7.309,0,0,0-7.338-7.338h-.918v3.67h.918a3.654,3.654,0,0,1,3.669,3.669h-8.256a3.654,3.654,0,0,1,3.669-3.669v-3.67a7.309,7.309,0,0,0-7.338,7.338h0v3.67h0a7.308,7.308,0,0,0,7.338,7.338h7.237v-3.669H404.71a3.654,3.654,0,0,1-3.669-3.67Z" transform="translate(-260.792 -459.096)" fill="#10384a"/><path d="M273.319,467.108h-3.67v11.008a3.654,3.654,0,0,1-3.67,3.67h-.917a3.654,3.654,0,0,1-3.669-3.67V467.108h-3.67v11.008h0a7.308,7.308,0,0,0,7.338,7.338h.917a7.308,7.308,0,0,0,7.339-7.338h0V467.108Z" transform="translate(-226.739 -459.26)" fill="#10384a"/><path d="M310.87,464.708h-5.5a7.308,7.308,0,0,0-7.338,7.338v3.67a7.308,7.308,0,0,0,7.338,7.338H307.2a7.308,7.308,0,0,0,7.339-7.338V457.268h-3.67Zm0,11.008a3.654,3.654,0,0,1-3.67,3.67h-1.834a3.654,3.654,0,0,1-3.669-3.67h0v-3.67h0a3.654,3.654,0,0,1,3.669-3.669h5.5v7.338Z" transform="translate(-236.567 -456.86)" fill="#10384a"/><g transform="translate(117.112 0.815)"><rect width="3.669" height="18.448" transform="translate(0 6.523)" fill="#10384a"/><rect width="3.669" height="3.669" fill="#10384a"/></g><path d="M289.73,466.3a7.308,7.308,0,0,0-7.338,7.339h0v11.008h3.669V473.638h0a3.654,3.654,0,0,1,3.67-3.67h1.834V466.3Z" transform="translate(-232.754 -459.063)" fill="#10384a"/><path d="M389.074,466.3a7.308,7.308,0,0,0-7.338,7.339h0v11.008H385.4V473.638h0a3.654,3.654,0,0,1,3.67-3.67h1.936V466.3Z" transform="translate(-256.979 -459.063)" fill="#10384a"/><path d="M240.451,466.3H237.7a7.308,7.308,0,0,0-7.338,7.339v3.669a7.308,7.308,0,0,0,7.338,7.339h2.752a7.309,7.309,0,0,0,7.339-7.339h-3.67a3.654,3.654,0,0,1-3.67,3.67H237.7a3.654,3.654,0,0,1-3.67-3.67h0v-3.669h0a3.654,3.654,0,0,1,3.67-3.67h2.752a3.654,3.654,0,0,1,3.67,3.67h0v3.669h3.67v-3.669h0A7.309,7.309,0,0,0,240.451,466.3Z" transform="translate(-220.066 -459.063)" fill="#10384a"/><path d="M216.746,464.067v18.449h3.67V467.737H225v-3.67h-4.587a3.654,3.654,0,0,1,3.67-3.669h2.65v-3.67h-2.65A7.308,7.308,0,0,0,216.746,464.067Z" transform="translate(-216.746 -456.729)" fill="#10384a"/><path d="M362.438,475.71a3.73,3.73,0,0,0-3.261-1.937h-6.931v-.815a2.765,2.765,0,0,1,1.529-2.548,2.825,2.825,0,0,1,1.325-.306h6.319v-3.67H355.1a6.591,6.591,0,0,0-6.523,6.625v.713a3.523,3.523,0,0,0,.51,1.835,3.6,3.6,0,0,0,3.16,1.834h7.033v.815a2.879,2.879,0,0,1-1.529,2.548,3.312,3.312,0,0,1-1.427.408H348.78v3.67h7.543a6.657,6.657,0,0,0,6.625-6.523V477.34A3.83,3.83,0,0,0,362.438,475.71Z" transform="translate(-248.893 -459.096)" fill="#10384a"/></g></g></svg>