<svg xmlns="http://www.w3.org/2000/svg" width="205.626" height="48.89" viewBox="0 0 205.626 48.89"><g transform="translate(-151.004 -35.28)"><g transform="translate(151.004 35.279)"><path d="M190.459,42.433a9.776,9.776,0,0,0-2.494-4.336h0a9.679,9.679,0,0,0-13.657,0h0l-3.414,3.414L167.479,38.1a9.679,9.679,0,0,0-13.657,0h0a9.657,9.657,0,0,0,13.657,13.658h0l3.415-3.414,3.414,3.414h0l3.414-3.414-3.414-3.415,3.414-3.414h0a4.808,4.808,0,0,1,6.828,0h0a4.809,4.809,0,0,1,0,6.829h0l3.414,3.414a9.678,9.678,0,0,0,2.494-9.322ZM164.011,48.4h0a4.808,4.808,0,0,1-6.828,0h0a4.808,4.808,0,0,1,0-6.828h0a4.808,4.808,0,0,1,6.828,0l3.414,3.414Z" transform="translate(-151.004 -35.279)" fill="#fff"/><g transform="translate(49.48 2.71)"><path d="M251.538,42.083h-.488v1.951h.488a1.943,1.943,0,0,1,1.952,1.951H249.1a1.943,1.943,0,0,1,1.951-1.951V42.083a3.886,3.886,0,0,0-3.9,3.9h0v1.951h0a3.886,3.886,0,0,0,3.9,3.9H254.9v-1.9H251.05A1.943,1.943,0,0,1,249.1,47.99h6.342V46.039h0A3.933,3.933,0,0,0,251.538,42.083Z" transform="translate(-203.954 -38.235)" fill="#fff"/><path d="M284.02,47.992h1.951V46.041h0a3.886,3.886,0,0,0-3.9-3.9h-.488V44.09h.488a1.944,1.944,0,0,1,1.952,1.951h-4.391a1.943,1.943,0,0,1,1.951-1.951V42.139a3.886,3.886,0,0,0-3.9,3.9h0v1.951h0a3.886,3.886,0,0,0,3.9,3.9h3.848V49.943H281.58a1.943,1.943,0,0,1-1.951-1.951Z" transform="translate(-205.056 -38.237)" fill="#fff"/><path d="M227.722,42.42h-1.951v5.853a1.943,1.943,0,0,1-1.951,1.951h-.488a1.942,1.942,0,0,1-1.951-1.951V42.42H219.43v5.853h0a3.886,3.886,0,0,0,3.9,3.9h.488a3.886,3.886,0,0,0,3.9-3.9h0V42.42Z" transform="translate(-202.954 -38.247)" fill="#fff"/><path d="M243.069,42.272h-2.926a3.886,3.886,0,0,0-3.9,3.9v1.951a3.886,3.886,0,0,0,3.9,3.9h.975a3.886,3.886,0,0,0,3.9-3.9V38.316h-1.951Zm0,5.853a1.943,1.943,0,0,1-1.951,1.951h-.975a1.942,1.942,0,0,1-1.951-1.951h0V46.174h0a1.943,1.943,0,0,1,1.951-1.951h2.926v3.9Z" transform="translate(-203.56 -38.099)" fill="#fff"/><g transform="translate(62.271 0.433)"><rect width="1.951" height="9.809" transform="translate(0 3.469)" fill="#fff"/><rect width="1.951" height="1.951" fill="#fff"/></g><path d="M233.621,42.083a3.886,3.886,0,0,0-3.9,3.9h0v5.853h1.951V45.985h0a1.942,1.942,0,0,1,1.951-1.951h.975V42.083Z" transform="translate(-203.325 -38.235)" fill="#fff"/><path d="M275.058,42.083a3.886,3.886,0,0,0-3.9,3.9h0v5.853h1.951V45.985h0a1.943,1.943,0,0,1,1.951-1.951h1.03V42.083Z" transform="translate(-204.82 -38.235)" fill="#fff"/><path d="M213.381,42.083h-1.463a3.886,3.886,0,0,0-3.9,3.9v1.951a3.886,3.886,0,0,0,3.9,3.9h1.463a3.886,3.886,0,0,0,3.9-3.9h-1.951a1.943,1.943,0,0,1-1.951,1.951h-1.463a1.943,1.943,0,0,1-1.951-1.951h0V45.985h0a1.943,1.943,0,0,1,1.951-1.951h1.463a1.942,1.942,0,0,1,1.951,1.951h0v1.951h1.951V45.985h0A3.886,3.886,0,0,0,213.381,42.083Z" transform="translate(-202.542 -38.235)" fill="#fff"/><path d="M202.337,41.993V51.8h1.951V43.944h2.439V41.993h-2.439a1.943,1.943,0,0,1,1.951-1.951h1.409V38.091h-1.409A3.886,3.886,0,0,0,202.337,41.993Z" transform="translate(-202.337 -38.091)" fill="#fff"/><path d="M264.7,47.07a1.984,1.984,0,0,0-1.734-1.029h-3.685v-.434a1.47,1.47,0,0,1,.813-1.354,1.5,1.5,0,0,1,.7-.163h3.36V42.139h-3.36a3.5,3.5,0,0,0-3.468,3.522v.38a1.867,1.867,0,0,0,.271.975,1.913,1.913,0,0,0,1.68.975h3.74v.434a1.533,1.533,0,0,1-.814,1.355,1.77,1.77,0,0,1-.759.216h-4.011v1.952h4.011a3.541,3.541,0,0,0,3.523-3.469v-.542A2.054,2.054,0,0,0,264.7,47.07Z" transform="translate(-204.321 -38.237)" fill="#fff"/></g></g><path d="M183.068,80.569v4a.587.587,0,0,1-.617.587,11.011,11.011,0,0,1-10.38-10.979V63.086a.587.587,0,0,1,.587-.586H176.6a.587.587,0,0,1,.587.586V74.172A5.855,5.855,0,0,0,182.533,80,.579.579,0,0,1,183.068,80.569ZM168.225,67.25a7.715,7.715,0,0,1,0,6.019,7.794,7.794,0,0,1-1.682,2.477,7.875,7.875,0,0,1-2.5,1.668,7.717,7.717,0,0,1-3.037.6h-3.248a.532.532,0,0,0-.534.529v5.934a.532.532,0,0,1-.534.529H152.9a.532.532,0,0,1-.534-.529V63.029a.532.532,0,0,1,.534-.529H161a7.718,7.718,0,0,1,3.037.605,7.872,7.872,0,0,1,2.5,1.667A7.787,7.787,0,0,1,168.225,67.25Zm-4.243,3.009a2.837,2.837,0,0,0-.864-2.095A2.891,2.891,0,0,0,161,67.309h-3.248a.532.532,0,0,0-.534.529v4.843a.531.531,0,0,0,.534.528H161a2.89,2.89,0,0,0,2.115-.855A2.837,2.837,0,0,0,163.982,70.26Zm123.372-.886a11.151,11.151,0,0,1,0,8.748,11.414,11.414,0,0,1-2.442,3.585,11.558,11.558,0,0,1-3.619,2.419,11.5,11.5,0,0,1-8.846,0,11.369,11.369,0,0,1-3.6-2.419,11.522,11.522,0,0,1-2.427-3.585,11.151,11.151,0,0,1,0-8.748,11.589,11.589,0,0,1,2.427-3.569,11.369,11.369,0,0,1,3.6-2.419,11.5,11.5,0,0,1,8.846,0,11.442,11.442,0,0,1,6.06,5.989Zm-3.871,4.367a6.218,6.218,0,0,0-.521-2.537,6.632,6.632,0,0,0-3.514-3.466,6.477,6.477,0,0,0-2.576-.517,6.405,6.405,0,0,0-2.547.517A6.632,6.632,0,0,0,270.81,71.2a6.432,6.432,0,0,0,0,5.074,6.629,6.629,0,0,0,3.514,3.467,6.4,6.4,0,0,0,2.547.516,6.476,6.476,0,0,0,2.576-.516,6.629,6.629,0,0,0,3.514-3.467A6.215,6.215,0,0,0,283.483,73.74Zm47.393-8.2a10.15,10.15,0,0,0-3.171-2.124,9.689,9.689,0,0,0-3.872-.782,9.793,9.793,0,0,0-3.887.782,9.96,9.96,0,0,0-5.331,5.28,9.56,9.56,0,0,0-.788,3.85V84.4a.531.531,0,0,0,.533.528h3.761a.618.618,0,0,0,.614-.64c-.011-2.422,0-11.746,0-11.746a4.841,4.841,0,0,1,.378-1.976,5.159,5.159,0,0,1,1.1-1.608,5.232,5.232,0,0,1,1.623-1.092,5.107,5.107,0,0,1,5.6,1.092,5.285,5.285,0,0,1,1.087,1.608,4.821,4.821,0,0,1,.331,1.976s.033,9.311,0,11.741a.58.58,0,0,0,.566.645h3.856a.531.531,0,0,0,.534-.528V72.543a9.545,9.545,0,0,0-.789-3.85A10,10,0,0,0,330.876,65.536Zm-20.607-2.61h-3.76a.617.617,0,0,0-.614.64c.011,2.423,0,11.32,0,11.32a4.843,4.843,0,0,1-.379,1.977,5.193,5.193,0,0,1-2.725,2.7,5.112,5.112,0,0,1-5.6-1.091,5.3,5.3,0,0,1-1.087-1.608,4.823,4.823,0,0,1-.331-1.977s-.032-8.884,0-11.314a.581.581,0,0,0-.566-.646h-3.856a.532.532,0,0,0-.534.529V74.886a9.544,9.544,0,0,0,.789,3.85,9.99,9.99,0,0,0,2.145,3.157,10.146,10.146,0,0,0,3.171,2.124,9.681,9.681,0,0,0,3.871.782,9.789,9.789,0,0,0,3.887-.782,9.965,9.965,0,0,0,5.331-5.281,9.561,9.561,0,0,0,.789-3.85V63.455A.532.532,0,0,0,310.269,62.926Zm-68.158,9.595h-3.569a.52.52,0,0,0-.518.518V80.29h-1.742a6.589,6.589,0,0,1-2.591-.517,7.025,7.025,0,0,1-2.144-1.4,6.431,6.431,0,0,1-1.444-2.065,6.432,6.432,0,0,1,0-5.074,6.424,6.424,0,0,1,1.444-2.066,7.025,7.025,0,0,1,2.144-1.4,6.589,6.589,0,0,1,2.591-.516h3.542a.532.532,0,0,0,.534-.529V63.029a.532.532,0,0,0-.534-.529h-3.542a11.52,11.52,0,0,0-10.646,6.889,10.988,10.988,0,0,0,0,8.748,11.6,11.6,0,0,0,10.646,6.874h5.709a.543.543,0,0,0,.2-.039.519.519,0,0,0,.439-.51V73.038A.52.52,0,0,0,242.111,72.521ZM356.68,73.74a10.7,10.7,0,0,1-.908,4.381,11.585,11.585,0,0,1-10.646,6.889h-6.872a.532.532,0,0,1-.534-.529V63.029a.532.532,0,0,1,.534-.529h6.872a11.543,11.543,0,0,1,10.646,6.874A10.6,10.6,0,0,1,356.68,73.74Zm-4.854,0A6.217,6.217,0,0,0,351.3,71.2a6.448,6.448,0,0,0-1.445-2.065,7.024,7.024,0,0,0-2.144-1.4,6.589,6.589,0,0,0-2.591-.517H342.89a.484.484,0,0,0-.484.484V79.776a.484.484,0,0,0,.484.484h2.235a6.588,6.588,0,0,0,2.591-.516,7.025,7.025,0,0,0,2.144-1.4,6.441,6.441,0,0,0,1.445-2.066A6.214,6.214,0,0,0,351.825,73.74ZM197.491,62.8a.549.549,0,0,0-.978,0L185.643,83.977a.539.539,0,0,0,.489.781h4.377a1.143,1.143,0,0,0,1.031-.652l4.97-9.324a.552.552,0,0,1,.978,0l5.1,9.33a1.143,1.143,0,0,0,1.027.642h4.2a.539.539,0,0,0,.49-.78Zm27.034-.3h-4.513a.52.52,0,0,0-.431.231l-4.028,7.006a.517.517,0,0,1-.861,0l-3.971-7a.52.52,0,0,0-.431-.231h-4.517a.526.526,0,0,0-.431.82l7.339,11.995a.526.526,0,0,1,.09.295v8.73a.524.524,0,0,0,.521.526h3.719a.524.524,0,0,0,.521-.526v-8.8a.524.524,0,0,1,.077-.276l.155-.254,7.191-11.687A.526.526,0,0,0,224.525,62.5Zm38.851,18.375v3.446a.533.533,0,0,1-.558.532,11.437,11.437,0,0,1-10.045-6.835h-.863a.532.532,0,0,0-.534.529v5.934a.531.531,0,0,1-.533.529h-3.787a.532.532,0,0,1-.534-.529V63.029a.532.532,0,0,1,.534-.529h8.1a7.722,7.722,0,0,1,3.038.605,7.812,7.812,0,0,1,4.184,4.145,7.726,7.726,0,0,1,0,6.019,7.821,7.821,0,0,1-4.184,4.145c-.136.057-.273.109-.41.158a7,7,0,0,0,5.093,2.775A.53.53,0,0,1,263.375,80.875ZM251.91,73.209h3.248a2.89,2.89,0,0,0,2.115-.855,2.972,2.972,0,0,0,0-4.189,2.891,2.891,0,0,0-2.115-.856H251.91a.532.532,0,0,0-.534.529v4.843A.531.531,0,0,0,251.91,73.209Z" transform="translate(-0.049 -0.982)" fill="#fff"/></g></svg>