<svg xmlns="http://www.w3.org/2000/svg" width="1422.085" height="1438.107" viewBox="0 0 1422.085 1438.107"><g transform="translate(4051.292 3660.812)"><line y1="418.542" x2="0.503" transform="translate(-3442.425 -3150.295)" fill="none" stroke="#d0d0d0" stroke-miterlimit="10" stroke-width="1"/><g transform="translate(-4050.792 -3660.518)"><path d="M-5575.245,1619.256l372.408-509.412,1048.674.3" transform="translate(5575.245 -181.738)" fill="none" stroke="#d0d0d0" stroke-miterlimit="10" stroke-width="1"/><path d="M-5574.544,1303.951l372.232-363.823,1048.674.3" transform="translate(5574.791 -71.793)" fill="none" stroke="#d0d0d0" stroke-miterlimit="10" stroke-width="1"/><path d="M-5573.843,988.647l372.057-218.233,1048.675.3" transform="translate(5574.336 38.152)" fill="none" stroke="#d0d0d0" stroke-miterlimit="10" stroke-width="1"/><path d="M-5573.143,673.342-5201.26,600.7l1048.675.3" transform="translate(5573.883 148.097)" fill="none" stroke="#d0d0d0" stroke-miterlimit="10" stroke-width="1"/><path d="M-5572.441,223.859l371.708,72.945,1048.675.3" transform="translate(5573.429 392.22)" fill="none" stroke="#d0d0d0" stroke-miterlimit="10" stroke-width="1"/><path d="M-5571.74-359.25l371.532,218.534,1048.675.3" transform="translate(5572.974 769.97)" fill="none" stroke="#d0d0d0" stroke-miterlimit="10" stroke-width="1"/><path d="M-5571.04-942.359l371.357,364.123,1048.676.3" transform="translate(5572.521 1147.719)" fill="none" stroke="#d0d0d0" stroke-miterlimit="10" stroke-width="1"/><path d="M-5570.339-1525.468l371.182,509.712,1048.676.3" transform="translate(5572.066 1525.468)" fill="none" stroke="#d0d0d0" stroke-miterlimit="10" stroke-width="1"/></g><g transform="translate(-4050.792 -3660.518)"><line y1="418.843" x2="0.503" transform="translate(372.407 509.337)" fill="none" stroke="#d0d0d0" stroke-miterlimit="10" stroke-width="1"/><line y1="564.368" x2="0.678" transform="translate(319.206 436.575)" fill="none" stroke="#d0d0d0" stroke-miterlimit="10" stroke-width="1"/><line y1="709.893" x2="0.853" transform="translate(266.005 363.812)" fill="none" stroke="#d0d0d0" stroke-miterlimit="10" stroke-width="1"/><line y1="855.418" x2="1.028" transform="translate(212.804 291.05)" fill="none" stroke="#d0d0d0" stroke-miterlimit="10" stroke-width="1"/><line y1="1000.943" x2="1.203" transform="translate(159.603 218.287)" fill="none" stroke="#d0d0d0" stroke-miterlimit="10" stroke-width="1"/><line y1="1146.468" x2="1.378" transform="translate(106.402 145.525)" fill="none" stroke="#d0d0d0" stroke-miterlimit="10" stroke-width="1"/><line y1="1291.993" x2="1.553" transform="translate(53.201 72.762)" fill="none" stroke="#d0d0d0" stroke-miterlimit="10" stroke-width="1"/><line y1="1437.518" x2="1.728" transform="translate(0 0)" fill="none" stroke="#d0d0d0" stroke-miterlimit="10" stroke-width="1"/></g><line y1="418.542" x2="0.503" transform="translate(-3620.811 -3150.81)" fill="none" stroke="#d0d0d0" stroke-miterlimit="10" stroke-width="1"/><line y1="418.542" x2="0.503" transform="translate(-3562.395 -3150.439)" fill="none" stroke="#d0d0d0" stroke-miterlimit="10" stroke-width="1"/><line y1="418.542" x2="0.503" transform="translate(-3503.16 -3150.368)" fill="none" stroke="#d0d0d0" stroke-miterlimit="10" stroke-width="1"/><line y1="418.542" x2="0.503" transform="translate(-3382.193 -3150.368)" fill="none" stroke="#d0d0d0" stroke-miterlimit="10" stroke-width="1"/><line y1="418.542" x2="0.503" transform="translate(-3321.71 -3150.368)" fill="none" stroke="#d0d0d0" stroke-miterlimit="10" stroke-width="1"/><line y1="418.542" x2="0.503" transform="translate(-3261.227 -3150.368)" fill="none" stroke="#d0d0d0" stroke-miterlimit="10" stroke-width="1"/><line y1="418.542" x2="0.503" transform="translate(-3200.745 -3150.368)" fill="none" stroke="#d0d0d0" stroke-miterlimit="10" stroke-width="1"/><line y1="418.542" x2="0.503" transform="translate(-3140.261 -3150.368)" fill="none" stroke="#d0d0d0" stroke-miterlimit="10" stroke-width="1"/><line y1="418.542" x2="0.503" transform="translate(-3079.778 -3150.368)" fill="none" stroke="#d0d0d0" stroke-miterlimit="10" stroke-width="1"/><line y1="418.542" x2="0.503" transform="translate(-3020.092 -3150.368)" fill="none" stroke="#d0d0d0" stroke-miterlimit="10" stroke-width="1"/><line y1="418.542" x2="0.503" transform="translate(-2960.008 -3150.368)" fill="none" stroke="#d0d0d0" stroke-miterlimit="10" stroke-width="1"/><line y1="418.542" x2="0.503" transform="translate(-2899.922 -3150.368)" fill="none" stroke="#d0d0d0" stroke-miterlimit="10" stroke-width="1"/><line y1="418.542" x2="0.503" transform="translate(-2839.838 -3150.368)" fill="none" stroke="#d0d0d0" stroke-miterlimit="10" stroke-width="1"/><line y1="418.542" x2="0.503" transform="translate(-2780.386 -3150.368)" fill="none" stroke="#d0d0d0" stroke-miterlimit="10" stroke-width="1"/><line y1="418.542" x2="0.503" transform="translate(-2720.935 -3150.368)" fill="none" stroke="#d0d0d0" stroke-miterlimit="10" stroke-width="1"/><line y1="418.542" x2="0.503" transform="translate(-2661.483 -3150.368)" fill="none" stroke="#d0d0d0" stroke-miterlimit="10" stroke-width="1"/></g></svg>