<svg xmlns="http://www.w3.org/2000/svg" width="890.686" height="705.168" viewBox="0 0 890.686 705.168"><g transform="translate(1369.127 666.702)"><line y1="482.525" transform="translate(-1000.433 -555.034)" fill="none" stroke="#d2d2d2" stroke-miterlimit="10" stroke-width="1"/><g transform="translate(-1368.749 -666.375)"><path d="M-1368.749,242.393l96.284-111.08h794.024" transform="translate(1368.749 462.12)" fill="none" stroke="#d2d2d2" stroke-miterlimit="10" stroke-width="1"/><path d="M-1368.749,118.03l96.284-79.343h793.918" transform="translate(1368.749 485.837)" fill="none" stroke="#d2d2d2" stroke-miterlimit="10" stroke-width="1"/><path d="M-1368.749-6.332l96.284-47.606h793.812" transform="translate(1368.749 509.555)" fill="none" stroke="#d2d2d2" stroke-miterlimit="10" stroke-width="1"/><path d="M-1368.749-130.694l96.284-15.869H-478.76" transform="translate(1368.749 533.272)" fill="none" stroke="#d2d2d2" stroke-miterlimit="10" stroke-width="1"/><path d="M-1368.749-260.518l96.284,15.869h793.6" transform="translate(1368.749 562.452)" fill="none" stroke="#d2d2d2" stroke-miterlimit="10" stroke-width="1"/><path d="M-1368.749-395.8l96.284,47.606h793.493" transform="translate(1368.749 597.093)" fill="none" stroke="#d2d2d2" stroke-miterlimit="10" stroke-width="1"/><path d="M-1368.749-531.089l96.284,79.343h793.386" transform="translate(1368.749 631.734)" fill="none" stroke="#d2d2d2" stroke-miterlimit="10" stroke-width="1"/><path d="M-1368.749-666.375l96.284,111.08h793.28" transform="translate(1368.749 666.375)" fill="none" stroke="#d2d2d2" stroke-miterlimit="10" stroke-width="1"/></g><line y1="482.871" transform="translate(-1272.465 -555.727)" fill="none" stroke="#d2d2d2" stroke-miterlimit="10" stroke-width="1"/><line y1="482.525" transform="translate(-1206.09 -555.381)" fill="none" stroke="#d2d2d2" stroke-miterlimit="10" stroke-width="1"/><line y1="571.39" transform="translate(-1310.4 -599.813)" fill="none" stroke="#d2d2d2" stroke-miterlimit="10" stroke-width="1"/><line y1="673.393" transform="translate(-1354.485 -650.815)" fill="none" stroke="#d2d2d2" stroke-miterlimit="10" stroke-width="1"/><line y1="482.525" transform="translate(-1138.743 -555.034)" fill="none" stroke="#d2d2d2" stroke-miterlimit="10" stroke-width="1"/><line y1="482.525" transform="translate(-1070.453 -555.034)" fill="none" stroke="#d2d2d2" stroke-miterlimit="10" stroke-width="1"/><line y1="482.525" transform="translate(-930.591 -555.034)" fill="none" stroke="#d2d2d2" stroke-miterlimit="10" stroke-width="1"/><line y1="482.525" transform="translate(-860.661 -555.034)" fill="none" stroke="#d2d2d2" stroke-miterlimit="10" stroke-width="1"/><line y1="482.525" transform="translate(-790.73 -555.034)" fill="none" stroke="#d2d2d2" stroke-miterlimit="10" stroke-width="1"/><line y1="482.525" transform="translate(-720.8 -555.034)" fill="none" stroke="#d2d2d2" stroke-miterlimit="10" stroke-width="1"/><line y1="482.525" transform="translate(-650.87 -555.034)" fill="none" stroke="#d2d2d2" stroke-miterlimit="10" stroke-width="1"/><line y1="482.525" transform="translate(-580.939 -555.034)" fill="none" stroke="#d2d2d2" stroke-miterlimit="10" stroke-width="1"/><line y1="482.525" transform="translate(-511.009 -555.034)" fill="none" stroke="#d2d2d2" stroke-miterlimit="10" stroke-width="1"/></g></svg>