<svg xmlns="http://www.w3.org/2000/svg" width="24.092" height="19.711" viewBox="0 0 24.092 19.711"><g transform="translate(-43.05 -40.808)"><path d="M68.336,60.519H59.575a1.1,1.1,0,0,1,0-2.19h8.761a1.1,1.1,0,0,0,1.1-1.1V44.093a1.1,1.1,0,0,0-1.1-1.1H59.575a1.1,1.1,0,1,1,0-2.19h8.761a3.289,3.289,0,0,1,3.285,3.285v13.14A3.289,3.289,0,0,1,68.336,60.519Z" transform="translate(-4.479)" fill="#fff"/><path d="M48.526,57.93a1.094,1.094,0,0,1-.774-.321l-4.38-4.38a1.094,1.094,0,0,1,0-1.549l4.38-4.38A1.095,1.095,0,0,1,49.3,48.849l-3.606,3.606L49.3,56.061a1.1,1.1,0,0,1-.774,1.869Z" transform="translate(0 -1.792)" fill="#fff"/><path d="M58.381,55.341H44.145a1.1,1.1,0,0,1,0-2.19H58.381a1.1,1.1,0,0,1,0,2.19Z" transform="translate(0 -3.583)" fill="#fff"/></g></svg>