{
    "asset": {
        "copyright": "2020 (c) Adobe Inc.",
        "generator": "Adobe Dimension - 20b96ed1944f99fd310aada6a21defae413bc238",
        "version": "2.0"
    },
    "accessors": [
        {
            "bufferView": 0,
            "componentType": 5126,
            "count": 322137,
            "type": "VEC3",
            "max": [
                0.276480108499527,
                0.23952297866344453,
                0.09909263253211975
            ],
            "min": [
                -0.276467889547348,
                0.05781741812825203,
                -0.09906688332557678
            ]
        },
        {
            "bufferView": 1,
            "componentType": 5126,
            "count": 322137,
            "type": "VEC3"
        },
        {
            "bufferView": 2,
            "componentType": 5126,
            "count": 322137,
            "type": "VEC2"
        },
        {
            "bufferView": 3,
            "componentType": 5125,
            "count": 322137,
            "type": "SCALAR",
            "max": [
                322136.0
            ],
            "min": [
                0.0
            ]
        }
    ],
    "bufferViews": [
        {
            "buffer": 0,
            "byteOffset": 0,
            "byteLength": 3865644,
            "target": 34962
        },
        {
            "buffer": 0,
            "byteOffset": 3865644,
            "byteLength": 3865644,
            "target": 34962
        },
        {
            "buffer": 0,
            "byteOffset": 7731288,
            "byteLength": 2577096,
            "target": 34962
        },
        {
            "buffer": 0,
            "byteOffset": 10308384,
            "byteLength": 1288548,
            "target": 34963
        }
    ],
    "buffers": [
        {
            "byteLength": 11596932,
            "uri": "water_binary.bin"
        }
    ],
    "cameras": [
        {
            "perspective": {
                "znear": 0.000012296919521759265,
                "yfov": 0.6024156808853149,
                "zfar": 2.0,
                "aspectRatio": 1.3333333730697632
            },
            "type": "perspective",
            "name": "render_camera"
        }
    ],
    "images": [
        {
            "name": "frosted_glass_normal",
            "uri": "water_images/frosted_glass_normal.png",
            "mimeType": "image/png"
        }
    ],
    "materials": [
        {
            "pbrMetallicRoughness": {
                "baseColorFactor": [
                    0.5394796133041382,
                    0.9046613574028015,
                    1.0,
                    0.25
                ],
                "metallicFactor": 0.0,
                "roughnessFactor": 0.0
            },
            "normalTexture": {
                "index": 0
            },
            "alphaMode": "BLEND",
            "name": "Frosted Glass",
            "doubleSided": true
        }
    ],
    "meshes": [
        {
            "name": "Splash",
            "primitives": [
                {
                    "attributes": {
                        "POSITION": 0,
                        "NORMAL": 1,
                        "TEXCOORD_0": 2
                    },
                    "indices": 3,
                    "material": 0
                }
            ]
        }
    ],
    "nodes": [
        {
            "translation": [
                0.5173080563545227,
                0.24218256771564485,
                0.3977403938770294
            ],
            "rotation": [
                -0.12059047073125839,
                0.379409521818161,
                0.04995020851492882,
                0.9159756302833557
            ],
            "scale": [
                1.0,
                1.0,
                0.9999999403953552
            ],
            "camera": 0,
            "name": "render_camera_n3d"
        },
        {
            "translation": [
                -0.000006103515261202119,
                -0.05781741812825203,
                -0.000012874603271484375
            ],
            "mesh": 0,
            "name": "Splash"
        }
    ],
    "samplers": [
        {}
    ],
    "scenes": [
        {
            "nodes": [
                0,
                1
            ],
            "name": "scene"
        }
    ],
    "textures": [
        {
            "name": "frosted_glass_material::normal::image",
            "sampler": 0,
            "source": 0
        }
    ],
    "scene": 0
}